<svg width="21" height="25" viewBox="0 0 21 25" fill="none" xmlns="http://www.w3.org/2000/svg">
<path d="M3.3797 13.6896C3.3797 11.5496 3.3797 9.40958 3.3797 7.25958C3.3797 6.62958 3.3797 6.00958 3.3797 5.37958C3.3597 4.20958 4.30975 3.00959 5.67975 3.01959C8.13975 3.03959 10.6096 3.01959 13.0696 3.01959C13.1796 3.01959 13.3197 3.08956 13.3997 3.16956C15.7297 5.61956 18.0497 8.07955 20.3697 10.5396C20.4497 10.6296 20.5197 10.7796 20.5197 10.8996C20.5197 14.5996 20.5197 18.2896 20.5097 21.9896C20.5097 22.2996 20.4397 22.6296 20.3297 22.9296C20.0197 23.7896 19.3697 24.2195 18.4497 24.2195C16.6897 24.2195 14.9297 24.2195 13.1697 24.2195C10.5597 24.2195 7.94967 24.2296 5.33967 24.2396C5.15967 24.2396 4.96975 24.2096 4.79975 24.1496C3.97975 23.8696 3.39972 22.9996 3.39972 22.0796C3.39972 19.2896 3.39972 16.4896 3.39972 13.6996L3.3797 13.6896ZM18.6497 20.6496C18.6497 17.5196 18.6497 14.3896 18.6497 11.2696C18.6497 11.0496 18.5797 10.9796 18.3697 10.9896C17.7497 11.0196 17.1297 11.0496 16.5097 11.0596C16.1097 11.0596 15.6997 11.0796 15.2997 11.0196C14.1997 10.8696 13.5597 10.2195 13.2997 9.15955C13.1397 8.49955 13.1097 7.82955 13.1097 7.15955C13.1097 6.47955 13.1097 5.79957 13.1097 5.11957C13.1097 5.03957 13.0997 4.95957 13.0897 4.86957C13.0497 4.86957 13.0197 4.84955 12.9897 4.84955C10.5897 4.84955 8.18974 4.85958 5.78974 4.87958C5.28974 4.87958 5.28973 4.8996 5.27973 5.3996C5.25973 8.6796 5.23968 11.9596 5.22968 15.2396C5.22968 17.5596 5.23969 19.8696 5.23969 22.1896C5.23969 22.3796 5.28968 22.4396 5.47968 22.4396C9.25968 22.5296 13.0298 22.5595 16.8098 22.4695C17.3298 22.4595 17.8497 22.4396 18.3697 22.4296C18.4397 22.4296 18.5197 22.4295 18.6297 22.4095C18.6297 21.8095 18.6297 21.2296 18.6297 20.6496H18.6497Z" fill="white"/>
<path d="M0.299805 18.6696H2.13977C2.13977 13.0896 2.13977 7.51962 2.13977 1.91962C4.89977 1.91962 7.62977 1.91962 10.3898 1.91962C10.3898 1.37962 10.3898 0.869609 10.3898 0.349609H0.309814C0.309814 6.45961 0.309814 12.5596 0.309814 18.6796L0.299805 18.6696Z" fill="white"/>
</svg>
