<svg width="24" height="24" viewBox="0 0 24 24" fill="none" xmlns="http://www.w3.org/2000/svg">
<path d="M15.35 5.10938C15.02 5.41938 14.7401 5.6794 14.4601 5.9494C14.0301 6.3494 13.5901 6.74936 13.1801 7.15936C13.0101 7.32936 12.83 7.37939 12.6 7.37939C10.19 7.37939 7.78006 7.37939 5.37006 7.37939C4.71006 7.37939 4.12009 7.52942 3.65009 8.02942C3.25009 8.44942 3.09009 8.94941 3.09009 9.51941C3.09009 12.7894 3.09009 16.0594 3.09009 19.3294C3.09009 20.6094 3.95004 21.4594 5.23004 21.4594C8.49004 21.4594 11.7501 21.4594 15.0101 21.4594C16.3401 21.4594 17.17 20.6294 17.17 19.2994C17.17 16.8294 17.17 14.3494 17.17 11.8794C17.17 11.5594 17.2701 11.3394 17.5001 11.1194C18.1001 10.5594 18.6701 9.96941 19.2501 9.39941C19.3001 9.34941 19.3601 9.30938 19.4401 9.23938C19.4501 9.33938 19.47 9.39941 19.47 9.45941C19.47 13.0394 19.4701 16.6094 19.4601 20.1894C19.4601 22.2694 17.9701 23.7494 15.8901 23.7594C12.0701 23.7694 8.26006 23.7594 4.44006 23.7594C2.69006 23.7594 1.33005 22.7194 0.930054 21.0994C0.860054 20.8094 0.830078 20.4994 0.830078 20.1894C0.830078 16.3294 0.830078 12.4694 0.830078 8.60938C0.830078 6.73937 2.35006 5.12938 4.19006 5.11938C7.84006 5.09938 11.4901 5.11938 15.1501 5.11938C15.2001 5.11938 15.2501 5.1194 15.3801 5.1394L15.35 5.10938Z" fill="white"/>
<path d="M9.27028 16.3899C8.81028 16.3599 8.46028 16.1398 8.27028 15.7198C8.07028 15.2598 8.14026 14.8199 8.50026 14.4499C9.17026 13.7699 9.85029 13.0898 10.5303 12.4098C12.8303 10.1098 15.1202 7.81989 17.4202 5.51989C17.7902 5.14989 17.7902 4.86985 17.4202 4.47985C17.0702 4.11985 16.7203 3.7599 16.3803 3.3999C15.9803 2.9799 16.1103 2.56986 16.6903 2.42986C18.2203 2.04986 19.7503 1.66985 21.2803 1.28985C21.8303 1.14985 22.3803 1.00987 22.9303 0.869867C23.5303 0.719867 23.8303 0.989889 23.6803 1.57989C23.1603 3.68989 22.6302 5.80985 22.1002 7.91985C21.9702 8.42985 21.5603 8.54987 21.1803 8.18987C20.8003 7.82987 20.4302 7.45985 20.0502 7.09985C19.7002 6.76985 19.4003 6.76985 19.0603 7.09985C16.1103 10.0498 13.1603 12.9999 10.2103 15.9499C9.95028 16.2099 9.67024 16.3799 9.29024 16.3699L9.27028 16.3899Z" fill="white"/>
</svg>
