<svg width="231" height="54" viewBox="0 0 231 54" fill="none" xmlns="http://www.w3.org/2000/svg">
<path d="M32.5599 28.7001C32.5599 29.7701 32.5399 30.8401 32.5599 31.9101C32.5799 32.5501 32.2999 32.8001 31.6699 32.7901C29.6099 32.7801 27.5499 32.8101 25.4899 32.7701C24.8699 32.7701 24.4099 32.9301 23.9699 33.3801C22.6099 34.7901 21.1999 36.1401 19.8399 37.5401C19.3499 38.0401 18.9799 38.0701 18.4799 37.5501C17.0799 36.1101 15.6699 34.6801 14.2099 33.3001C13.9099 33.0101 13.3999 32.8101 12.9899 32.8001C10.9299 32.7501 8.86993 32.7801 6.80993 32.7701C5.85993 32.7701 5.73994 32.6401 5.73994 31.6701C5.73994 29.6401 5.71994 27.6001 5.73994 25.5701C5.73994 25.0001 5.56994 24.5901 5.15994 24.2001C3.75994 22.8401 2.38993 21.4501 1.00993 20.0601C0.359929 19.4101 0.359933 19.2601 1.02993 18.6001C2.40993 17.2101 3.77993 15.8201 5.17993 14.4601C5.58993 14.0601 5.74994 13.6501 5.73994 13.0801C5.70994 11.1301 5.72993 9.17007 5.72993 7.22007C5.72993 6.03007 5.78993 5.96007 6.94993 5.96007C8.84993 5.96007 10.7599 5.93007 12.6599 5.98007C13.4099 6.00007 13.9299 5.76007 14.4399 5.23007C15.6799 3.93007 16.9699 2.68007 18.2499 1.41007C19.1499 0.520067 19.1799 0.520068 20.0499 1.38007C21.3599 2.69007 22.6899 3.98006 23.9699 5.31006C24.4499 5.81006 24.9499 5.98007 25.6199 5.97007C27.5999 5.93007 29.5799 5.97007 31.5599 5.94007C32.2999 5.93007 32.5699 6.19007 32.5599 6.94007C32.5199 9.00007 32.5199 11.0601 32.5699 13.1201C32.5799 13.5401 32.7799 14.0401 33.0699 14.3401C34.4299 15.7701 35.8599 17.1501 37.2599 18.5501C37.9999 19.2901 37.9999 19.3501 37.2399 20.1101C35.8399 21.5101 34.4199 22.8901 33.0499 24.3201C32.7799 24.6001 32.5899 25.0701 32.5699 25.4701C32.4999 26.5301 32.5499 27.6101 32.5499 28.6701L32.5599 28.7001ZM21.0499 20.0601C21.1799 20.2901 21.2099 20.3901 21.2799 20.4501C22.9799 21.8301 24.6299 23.2701 26.3999 24.5501C27.8399 25.5901 29.4699 25.5701 31.0799 24.8201C31.5799 24.5901 31.7699 24.3101 31.5399 23.7201C30.8999 22.0501 29.7899 20.9301 28.0099 20.6501C26.5699 20.4201 25.1099 20.3501 23.6599 20.2301C22.8399 20.1601 22.0099 20.1301 21.0399 20.0701L21.0499 20.0601ZM20.2199 21.1201C20.1099 21.2101 19.9999 21.2901 19.8999 21.3801C19.8999 21.5101 19.8599 21.6301 19.8699 21.7601C20.0399 23.8301 20.1899 25.9101 20.3999 27.9801C20.5799 29.7101 21.9499 31.2701 23.5999 31.7701C24.0899 31.9201 24.3699 31.7701 24.5999 31.3201C25.4899 29.6301 25.2799 27.6501 23.9999 26.0601C22.8399 24.6201 21.6699 23.1901 20.5199 21.7501C20.3799 21.5701 20.3199 21.3401 20.2199 21.1301V21.1201ZM17.1899 20.1401C17.0699 20.1001 16.9999 20.0601 16.9299 20.0601C14.8799 20.2201 12.8299 20.3401 10.7799 20.5501C8.80993 20.7601 7.48993 21.8601 6.80993 23.7201C6.61993 24.2301 6.73994 24.5501 7.23994 24.7901C8.69994 25.4901 10.2499 25.6501 11.5699 24.7401C13.5099 23.4001 15.2899 21.8301 17.1399 20.3501C17.1699 20.3301 17.1599 20.2501 17.1899 20.1301V20.1401ZM19.8599 17.4901C20.0899 17.3801 20.1999 17.3601 20.2599 17.3001C21.6299 15.6001 23.0599 13.9401 24.3399 12.1701C25.4199 10.6801 25.4199 9.01007 24.5699 7.37007C24.3799 7.01007 24.1699 6.82007 23.6999 6.96007C21.8799 7.49007 20.5399 9.10007 20.3799 10.9801C20.2299 12.8001 20.0699 14.6101 19.9199 16.4201C19.8899 16.7401 19.8799 17.0601 19.8599 17.4901ZM21.0799 18.4101C21.1099 18.4901 21.1499 18.5601 21.1799 18.6401C21.4799 18.6301 21.7899 18.6201 22.0899 18.6001C23.9099 18.4501 25.7199 18.3101 27.5399 18.1301C29.5199 17.9301 30.8399 16.8801 31.5399 15.0101C31.7599 14.4301 31.6099 14.1501 31.0899 13.9101C29.2899 13.0601 27.5899 13.2201 26.0199 14.4301C24.6199 15.5101 23.2599 16.6501 21.8899 17.7601C21.6199 17.9801 21.3499 18.2001 21.0699 18.4201L21.0799 18.4101ZM18.4699 21.2201C18.1999 21.3801 18.0999 21.4101 18.0399 21.4801C16.6799 23.1601 15.2699 24.8001 13.9999 26.5501C12.9599 27.9901 12.9599 29.6101 13.6899 31.2301C13.9399 31.7801 14.2799 31.9501 14.8699 31.7201C16.7199 30.9901 17.7599 29.6401 17.9699 27.6701C18.1199 26.1701 18.2099 24.6601 18.3299 23.1501C18.3799 22.5601 18.4199 21.9701 18.4799 21.2201H18.4699ZM18.3099 17.5301C18.3999 17.2901 18.4599 17.2201 18.4499 17.1601C18.2799 15.0301 18.1599 12.9001 17.9099 10.7801C17.6899 8.91007 16.5799 7.68006 14.7999 7.02006C14.2099 6.80006 13.9299 6.99007 13.6999 7.49007C12.8599 9.32007 13.0399 11.0401 14.2899 12.6201C15.3199 13.9301 16.3799 15.2101 17.4399 16.5001C17.6999 16.8201 17.9699 17.1201 18.3099 17.5301ZM17.1899 18.6001C17.2099 18.5201 17.2399 18.4401 17.2599 18.3601C15.4299 16.9101 13.6499 15.3901 11.7399 14.0401C10.3899 13.0901 8.83993 13.1601 7.33993 13.8501C6.78993 14.1001 6.59994 14.4401 6.81994 15.0301C7.50994 16.8201 8.77993 17.9001 10.6999 18.1101C12.5899 18.3101 14.4899 18.4401 16.3799 18.6001C16.6499 18.6201 16.9199 18.6001 17.1899 18.6001ZM11.9799 26.5101C10.1799 27.4401 8.50993 27.1901 6.77993 26.0701C6.77993 27.9401 6.75993 29.6201 6.80993 31.3001C6.80993 31.4501 7.23994 31.7101 7.46994 31.7101C8.79994 31.7501 10.1299 31.7201 11.4599 31.7101C11.7299 31.7101 11.9999 31.6701 12.4099 31.6401C11.2799 29.9401 11.1199 28.2901 11.9799 26.5001V26.5101ZM19.2599 9.19007C19.8399 7.39007 21.0899 6.31007 22.9599 5.97007C22.9299 5.83007 22.9499 5.73007 22.9099 5.69007C21.7799 4.54007 20.6599 3.37007 19.4899 2.26007C19.3699 2.15007 18.8999 2.22007 18.7399 2.37007C17.8099 3.24007 16.9199 4.16007 16.0299 5.07007C15.7899 5.32007 15.5699 5.58007 15.3899 5.79007C16.2199 6.22007 17.0699 6.50007 17.6899 7.04007C18.3199 7.59007 18.7199 8.41007 19.2799 9.19007H19.2599ZM5.47993 23.1901C5.97993 22.2801 6.28994 21.4101 6.84994 20.7701C7.39994 20.1501 8.21993 19.7701 8.80993 19.3601C8.12993 18.8701 7.30993 18.4701 6.75993 17.8401C6.20993 17.2101 5.92994 16.3401 5.46994 15.4801C4.53994 16.4201 3.62994 17.3501 2.71994 18.2701C1.9866 19.0034 1.99327 19.7401 2.73994 20.4801C3.65994 21.3901 4.56994 22.3001 5.46994 23.1901H5.47993ZM29.2699 19.3301C31.1799 19.9901 32.2099 21.3401 32.6299 23.4101C33.9499 22.0701 35.1499 20.8801 36.2999 19.6501C36.3999 19.5401 36.3399 19.1001 36.1999 18.9501C35.5499 18.2401 34.8499 17.5801 34.1699 16.9001C33.6799 16.4201 33.1999 15.9401 32.6099 15.3601C32.1899 17.3701 31.2099 18.7101 29.2699 19.3201V19.3301ZM15.2399 32.8501C16.5199 34.1201 17.6999 35.3201 18.9199 36.4801C19.0199 36.5801 19.4999 36.4401 19.6699 36.2701C20.6099 35.3801 21.5199 34.4401 22.4299 33.5101C22.6399 33.3001 22.8199 33.0601 23.0999 32.7301C21.0599 32.3901 19.8399 31.2501 19.2099 29.3501C17.7899 32.1901 17.2399 32.1101 15.2399 32.8501ZM12.4799 7.02006C10.5799 7.02006 8.91993 7.00007 7.25993 7.05007C7.10993 7.05007 6.85994 7.48007 6.84994 7.71007C6.80994 8.67007 6.83994 9.63007 6.84994 10.6001C6.84994 11.2101 6.84994 11.8201 6.84994 12.6301C8.59994 11.4701 10.2599 11.2801 12.0299 12.1801C11.1999 10.3901 11.3199 8.77006 12.4899 7.02006H12.4799ZM31.4799 25.9101C29.7299 27.2201 28.0399 27.3001 26.2399 26.3901C27.1899 28.1901 26.9899 29.8601 25.8499 31.6201C27.7199 31.6201 29.3999 31.6301 31.0799 31.5901C31.2199 31.5901 31.4499 31.2101 31.4599 30.9901C31.4999 30.1601 31.4799 29.3201 31.4799 28.4901C31.4799 27.7001 31.4799 26.9101 31.4799 25.9101ZM31.4799 12.6701C31.4799 10.7701 31.4899 9.08007 31.4499 7.41007C31.4499 7.27007 31.0499 7.04007 30.8299 7.04007C29.7599 7.00007 28.6899 7.03007 27.6299 7.04007C27.0999 7.04007 26.5699 7.04007 25.7999 7.04007C27.0599 8.79007 27.1499 10.4401 26.2799 12.2101C28.0499 11.3601 29.6999 11.4201 31.4699 12.6801L31.4799 12.6701Z" fill="white"/>
<path d="M156.43 23.6099V34.3899H175.6V38.1399H152.4V6.66992H174.67V10.2999H156.46V20.0099H173.71V23.6199H156.42L156.43 23.6099Z" fill="white"/>
<path d="M205.03 38.1399H181.81V6.6499H204.08V10.3199H185.87V19.9999H203.15V23.6099H185.89V34.4099H205.04V38.1399H205.03Z" fill="white"/>
<path d="M121.23 28.1599C122.49 28.0499 123.7 27.9399 124.96 27.8299C125.03 28.2099 125.09 28.5399 125.16 28.8599C125.66 31.1999 126.92 32.9699 129.14 33.9299C132.75 35.4999 136.43 35.6199 140.06 34.0699C142.8 32.8899 143.88 29.9499 142.64 27.5299C142.1 26.4799 141.22 25.7299 140.15 25.3799C137.95 24.6599 135.7 24.1199 133.49 23.4499C131.21 22.7499 128.85 22.1899 126.7 21.1999C124.01 19.9599 122.4 17.7199 122.46 14.6299C122.52 11.4899 124.06 9.09989 126.84 7.73989C131.63 5.38989 136.53 5.46989 141.29 7.82989C144.27 9.30989 145.72 11.9399 146.02 15.2999C144.83 15.3899 143.72 15.4899 142.61 15.5299C142.44 15.5299 142.13 15.2899 142.1 15.1299C141.5 11.5099 139.14 9.91989 135.71 9.60989C133.63 9.41989 131.54 9.44989 129.53 10.1699C127.53 10.8999 126.38 12.4899 126.35 14.4399C126.33 16.1499 127.11 17.3899 128.67 17.9699C130.37 18.5999 132.14 19.0699 133.89 19.5499C136.07 20.1499 138.28 20.6499 140.45 21.2899C142.01 21.7499 143.42 22.5599 144.61 23.6899C147.82 26.7299 147.8 31.7199 144.58 35.0399C142.62 37.0599 140.15 38.0399 137.44 38.4099C134.14 38.8599 130.88 38.5899 127.76 37.3599C123.88 35.8299 121.2 32.0599 121.22 28.1599H121.23Z" fill="white"/>
<path d="M119.31 38.0899C117.87 38.0899 116.49 38.1099 115.12 38.0599C114.92 38.0599 114.65 37.7099 114.56 37.4599C113.6 34.8499 112.63 32.2399 111.74 29.5999C111.47 28.8099 111.1 28.5499 110.25 28.5599C106.44 28.6099 102.64 28.5999 98.83 28.5599C98.16 28.5599 97.89 28.7899 97.68 29.3899C96.75 32.0699 95.76 34.7199 94.83 37.3999C94.64 37.9399 94.37 38.1099 93.82 38.0999C92.65 38.0599 91.48 38.0899 90.21 38.0899C90.43 37.4999 90.6 37.0199 90.78 36.5399C94.14 27.7299 97.5 18.9199 100.85 10.1099C101.2 9.18989 101.51 8.23989 101.79 7.28989C101.91 6.86989 102.09 6.69989 102.55 6.70989C103.96 6.73989 105.37 6.73989 106.77 6.70989C107.23 6.69989 107.4 6.87989 107.55 7.26989C111.39 17.3099 115.25 27.3499 119.1 37.3899C119.17 37.5799 119.22 37.7799 119.31 38.0799V38.0899ZM110.01 25.1799C109.94 24.8399 109.91 24.5599 109.81 24.3099C109.44 23.3099 109.04 22.3299 108.67 21.3299C107.43 18.0099 106.2 14.6899 104.96 11.3799C104.88 11.1699 104.67 10.9999 104.53 10.8099C104.4 10.9899 104.23 11.1399 104.16 11.3399C102.64 15.5699 101.13 19.8099 99.62 24.0499C99.5 24.3999 99.4 24.7599 99.28 25.1799H110.02H110.01Z" fill="white"/>
<path d="M65.6399 38.0903C64.1899 38.0903 62.8198 38.1203 61.4398 38.0603C61.2398 38.0603 60.9799 37.6903 60.8899 37.4503C59.9299 34.8403 58.9699 32.2303 58.0699 29.6003C57.8199 28.8503 57.4898 28.5603 56.6498 28.5703C52.7898 28.6203 48.9298 28.6003 45.0798 28.5703C44.5198 28.5703 44.2598 28.7303 44.0798 29.2703C43.1298 32.0003 42.1198 34.7003 41.1698 37.4303C40.9998 37.9303 40.7698 38.1303 40.2298 38.1103C39.0398 38.0703 37.8498 38.1003 36.5898 38.1003C40.5698 27.5903 44.4999 17.2003 48.4599 6.74028C50.0199 6.74028 51.6598 6.72028 53.2998 6.77028C53.5198 6.77028 53.8199 7.13028 53.9199 7.39028C55.8399 12.2603 57.7599 17.1303 59.6399 22.0203C61.6099 27.1503 63.5198 32.2903 65.4598 37.4303C65.5298 37.6203 65.5698 37.8103 65.6498 38.1003L65.6399 38.0903ZM56.3499 25.1803C56.2799 24.8403 56.2498 24.5603 56.1498 24.3103C55.7798 23.3103 55.3799 22.3303 55.0099 21.3303C53.7699 18.0103 52.5398 14.6903 51.2998 11.3803C51.2198 11.1703 51.0098 11.0003 50.8698 10.8103C50.7398 10.9903 50.5698 11.1403 50.4998 11.3403C48.9798 15.5703 47.4699 19.8103 45.9599 24.0503C45.8399 24.4003 45.7398 24.7603 45.6198 25.1803H56.3598H56.3499Z" fill="white"/>
<path d="M69.3398 6.69018H73.3398V34.3902H88.6399V38.1002H69.3398V6.68018V6.69018Z" fill="white"/>
<path d="M230.21 38.1402H210.9V6.68018H214.89V34.4002H230.21V38.1302V38.1402Z" fill="white"/>
<path d="M204.71 41.7697C212.79 41.7697 220.87 41.7697 228.95 41.7697C229.21 41.7697 229.56 41.6797 229.71 41.8197C230 42.0697 230.36 42.4597 230.35 42.7697C230.34 43.0697 229.91 43.3897 229.6 43.6197C229.44 43.7297 229.14 43.6497 228.91 43.6497C212.75 43.6497 196.59 43.6497 180.43 43.6497C180.33 43.6497 180.22 43.6497 180.12 43.6497C179.39 43.6397 178.87 43.2397 178.95 42.6997C179.05 42.0397 179.46 41.7597 180.15 41.7597C188.33 41.7797 196.52 41.7597 204.7 41.7597L204.71 41.7697Z" fill="white"/>
<path d="M201.16 48.4396C201.87 47.7696 202.6 47.4396 203.5 47.6496C204.32 47.8396 204.85 48.3896 204.87 49.2296C204.91 50.4796 204.9 51.7296 204.87 52.9796C204.87 53.1496 204.66 53.3196 204.55 53.4896C204.43 53.3096 204.2 53.1196 204.19 52.9296C204.15 51.8596 204.19 50.7896 204.17 49.7196C204.16 48.7096 203.83 48.2596 203.1 48.1796C202.2 48.0796 201.52 48.5196 201.39 49.4896C201.25 50.5696 201.3 51.6696 201.21 52.7596C201.19 52.9996 200.97 53.2296 200.85 53.4696C200.74 53.2396 200.55 53.0196 200.55 52.7796C200.51 51.7596 200.55 50.7496 200.53 49.7296C200.51 48.6896 200.2 48.2496 199.48 48.1796C198.65 48.0996 197.86 48.6196 197.74 49.5196C197.6 50.4896 197.66 51.4896 197.58 52.4796C197.55 52.8196 197.37 53.1396 197.26 53.4696C197.14 53.1496 196.93 52.8296 196.92 52.4996C196.88 51.1496 196.89 49.7896 196.92 48.4296C196.92 48.1996 197.06 47.9696 197.14 47.7396C197.35 47.8696 197.56 48.0096 197.85 48.1896C198.91 47.4196 200.06 47.1996 201.19 48.4296L201.16 48.4396Z" fill="white"/>
<path d="M209.55 50.6904C208.93 50.6904 208.3 50.6504 207.68 50.7104C207.51 50.7304 207.23 51.0404 207.24 51.2104C207.28 52.0604 207.89 52.7904 208.65 52.9904C209.55 53.2304 210.34 52.9204 210.92 52.1704C211.07 51.9704 211.37 51.8804 211.6 51.7404C211.55 52.0104 211.6 52.3404 211.45 52.5404C210.75 53.5304 209.73 53.7104 208.6 53.5304C207.57 53.3704 206.85 52.7704 206.63 51.7804C206.48 51.0704 206.45 50.2804 206.6 49.5604C206.87 48.1904 208.1 47.4304 209.54 47.5904C210.94 47.7504 211.85 48.7404 211.91 50.1404C211.93 50.5804 211.72 50.6804 211.35 50.6804C210.75 50.6804 210.15 50.6804 209.56 50.6804L209.55 50.6904ZM211.04 50.0304C211.04 48.9104 210.39 48.2104 209.36 48.1604C208.17 48.1004 207.4 48.7704 207.3 50.0304H211.04Z" fill="white"/>
<path d="M189.38 50.6203C189.38 52.4803 188.41 53.5703 186.71 53.5903C185.01 53.6103 183.91 52.4503 183.9 50.6403C183.9 48.7403 184.96 47.5603 186.67 47.5803C188.36 47.5903 189.36 48.7303 189.37 50.6303L189.38 50.6203ZM188.68 50.6503C188.6 50.2403 188.57 49.8303 188.44 49.4403C188.2 48.6803 187.7 48.2103 186.86 48.1703C185.93 48.1203 185.24 48.4903 184.91 49.2803C184.56 50.1203 184.5 51.0003 184.86 51.8603C185.18 52.6203 185.75 53.0503 186.6 53.0703C187.88 53.1003 188.62 52.2303 188.68 50.6603V50.6503Z" fill="white"/>
<path d="M194.82 49.1799C194.62 49.0599 194.37 48.9799 194.23 48.8199C193.7 48.1799 192.66 47.8899 191.92 48.3099C191.66 48.4599 191.41 48.7999 191.38 49.0799C191.36 49.2999 191.63 49.6699 191.86 49.7799C192.32 49.9999 192.85 50.0899 193.34 50.2399C193.76 50.3699 194.21 50.4699 194.58 50.6799C195.35 51.1199 195.52 52.0499 195 52.7699C194.15 53.9499 191.47 53.8799 190.72 52.6399C190.61 52.4499 190.64 52.1799 190.6 51.9499C190.83 52.0399 191.13 52.0699 191.26 52.2299C191.9 53.0199 192.95 53.3499 193.83 52.8699C194.14 52.6999 194.46 52.2699 194.48 51.9399C194.5 51.6699 194.12 51.2599 193.82 51.1299C193.18 50.8599 192.47 50.7599 191.8 50.5499C191.11 50.3299 190.55 49.9599 190.58 49.1299C190.61 48.4299 191.19 47.8699 192.01 47.6799C193.52 47.3299 194.56 47.7899 194.92 48.9599L194.79 49.1799H194.82Z" fill="white"/>
<path d="M229.9 49.1605C229.69 49.0405 229.42 48.9705 229.28 48.8005C228.75 48.1605 227.59 47.9205 226.88 48.3405C226.25 48.7205 226.21 49.4405 226.88 49.7605C227.39 50.0105 227.96 50.1305 228.52 50.2505C229.85 50.5505 230.43 51.0905 230.36 51.9905C230.28 52.9405 229.48 53.5505 228.19 53.5805C227.22 53.6105 226.29 53.5105 225.74 52.5505C225.65 52.3905 225.71 52.1405 225.69 51.9305C225.9 52.0105 226.19 52.0205 226.31 52.1705C226.99 53.0005 227.86 53.3305 228.78 52.9105C229.12 52.7505 229.54 52.3105 229.55 51.9905C229.56 51.6905 229.14 51.2405 228.8 51.0905C228.19 50.8205 227.5 50.7405 226.85 50.5405C226.19 50.3305 225.66 49.9605 225.65 49.1805C225.65 48.4805 226.22 47.8805 227.03 47.6905C228.49 47.3305 229.53 47.7505 230.02 48.9105C229.98 49.0005 229.94 49.0805 229.9 49.1705V49.1605Z" fill="white"/>
<path d="M183.37 49.4703C182.96 49.2803 182.64 49.2403 182.47 49.0503C181.74 48.2303 180.95 47.9403 180.06 48.2403C179.28 48.5003 178.76 49.3203 178.72 50.3503C178.65 52.0603 179.5 53.1003 180.9 53.0603C181.65 53.0403 182.14 52.6403 182.56 52.0403C182.7 51.8403 183.01 51.7603 183.24 51.6203C183.21 51.9003 183.26 52.2303 183.13 52.4403C182.54 53.3803 181.61 53.6303 180.56 53.5803C179.51 53.5303 178.7 53.0803 178.28 52.0903C177.84 51.0603 177.85 49.9903 178.33 48.9803C178.86 47.8703 179.85 47.5403 180.99 47.5803C182.21 47.6303 182.92 48.1503 183.37 49.4603V49.4703Z" fill="white"/>
<path d="M224.16 49.3997C223.92 49.2797 223.58 49.2297 223.45 49.0397C222.88 48.1997 222.08 48.0097 221.19 48.2197C220.27 48.4397 219.87 49.1597 219.73 50.0497C219.45 51.8397 220.42 53.1497 221.96 53.0497C222.71 52.9997 223.18 52.5797 223.57 51.9697C223.68 51.7897 224 51.7397 224.22 51.6397C224.2 51.8797 224.27 52.1497 224.16 52.3397C223.58 53.3797 222.61 53.6397 221.5 53.5897C220.37 53.5397 219.47 53.0197 219.21 51.9297C219.01 51.0797 219.03 50.1197 219.21 49.2697C219.43 48.2097 220.45 47.6297 221.66 47.5897C222.97 47.5397 223.71 47.9897 224.26 49.1497C224.23 49.2397 224.19 49.3197 224.16 49.4097V49.3997Z" fill="white"/>
<path d="M215.63 53.2504C214.53 53.8904 213.61 53.4504 213.57 52.3304C213.53 51.3704 213.57 50.4004 213.55 49.4404C213.55 48.8204 213.81 48.0504 212.62 48.1004C213.26 47.5904 213.25 47.5804 213.58 46.4604C213.64 46.2604 213.87 46.1104 214.02 45.9404L214.26 46.0104C214.26 46.4604 214.12 46.9904 214.3 47.3404C214.46 47.6404 215 47.7504 215.38 47.9504C215.34 48.0104 215.3 48.1204 215.26 48.1204C214.26 48.0704 214.18 48.6704 214.24 49.4604C214.3 50.2404 214.27 51.0204 214.24 51.8004C214.22 52.5504 214.35 53.1204 215.28 53.0404C215.36 53.0404 215.44 53.1404 215.6 53.2404L215.63 53.2504Z" fill="white"/>
<path d="M217.41 50.6102C217.41 51.3902 217.43 52.1702 217.4 52.9502C217.4 53.1302 217.21 53.3102 217.11 53.4802C216.98 53.3002 216.74 53.1202 216.74 52.9402C216.71 51.3802 216.71 49.8202 216.74 48.2702C216.74 48.0902 216.99 47.9102 217.12 47.7402C217.22 47.9202 217.4 48.1002 217.41 48.2802C217.44 49.0602 217.42 49.8402 217.42 50.6202L217.41 50.6102Z" fill="white"/>
<path d="M217.15 45.4602C217.24 45.6302 217.4 45.8102 217.39 45.9802C217.39 46.1702 217.22 46.3502 217.13 46.5302C216.99 46.3902 216.75 46.2702 216.73 46.1102C216.7 45.9102 216.85 45.6902 216.92 45.4702C217 45.4702 217.07 45.4602 217.15 45.4502V45.4602Z" fill="white"/>
</svg>
