<svg width="14" height="14" viewBox="0 0 14 14" fill="none" xmlns="http://www.w3.org/2000/svg">
<path d="M7.77007 13.7402C7.65007 13.7402 7.54004 13.7503 7.42004 13.7603C6.01004 13.7903 4.60008 13.3702 3.46008 12.5402C2.30008 11.7002 1.43008 10.4902 1.03008 9.11024C0.480084 7.25024 0.78004 5.19025 1.86004 3.56025C2.66004 2.35025 3.89005 1.53023 5.24005 1.04023C7.13004 0.36023 9.35006 0.720279 11.0001 1.84028C12.1801 2.64028 12.98 3.84023 13.47 5.16023C14.16 7.05023 13.8101 9.24028 12.6901 10.9003C11.5701 12.5503 9.75008 13.5802 7.78008 13.7302L7.77007 13.7402ZM7.28008 12.8403C10.3601 12.8203 12.8801 10.3002 12.8801 7.24024C12.8801 4.16024 10.35 1.63027 7.29003 1.64027C4.20003 1.64027 1.67005 4.18023 1.68005 7.23023C1.69005 10.3402 4.22003 12.8602 7.29003 12.8502L7.28008 12.8403Z" fill="#7C7C7C"/>
<path d="M5.88013 6.66997C5.96013 6.20997 5.96015 6.19999 6.40015 6.18999C7.03015 6.17999 7.65013 6.18999 8.32013 6.18999C8.27013 6.36999 8.2201 6.57001 8.1601 6.77001C7.9101 7.61001 7.65015 8.44997 7.40015 9.28997C7.37015 9.39997 7.40015 9.53996 7.40015 9.65996C7.52015 9.59996 7.67012 9.55996 7.75012 9.46996C7.97012 9.22996 8.15011 8.94998 8.36011 8.67998C8.46011 8.74998 8.57014 8.82998 8.71014 8.92998C8.30014 9.57998 7.92015 10.25 7.09015 10.43C6.83015 10.48 6.53015 10.43 6.28015 10.35C5.92015 10.22 5.80012 9.79997 5.94012 9.28997C6.10012 8.71997 6.3001 8.15001 6.4801 7.58001C6.4801 7.55001 6.49012 7.51999 6.50012 7.49999C6.70012 6.90999 6.72013 6.61 5.95013 6.7C5.92013 6.7 5.89012 6.68998 5.87012 6.67998L5.88013 6.66997Z" fill="#7C7C7C"/>
<path d="M7.80019 5.57977C7.38019 5.57977 7.01022 5.19979 7.02022 4.77979C7.03022 4.35979 7.3902 4.00977 7.8102 4.00977C8.2402 4.00977 8.60022 4.37975 8.59022 4.80975C8.58022 5.22975 8.2202 5.57977 7.8102 5.57977H7.80019Z" fill="#7C7C7C"/>
</svg>
