<svg width="38" height="38" viewBox="0 0 38 38" fill="none" xmlns="http://www.w3.org/2000/svg">
<path d="M32.5599 28.7001C32.5599 29.7701 32.5399 30.8401 32.5599 31.9101C32.5799 32.5501 32.2999 32.8001 31.6699 32.7901C29.6099 32.7801 27.5499 32.8101 25.4899 32.7701C24.8699 32.7701 24.4099 32.9301 23.9699 33.3801C22.6099 34.7901 21.1999 36.1401 19.8399 37.5401C19.3499 38.0401 18.9799 38.0701 18.4799 37.5501C17.0799 36.1101 15.6699 34.6801 14.2099 33.3001C13.9099 33.0101 13.3999 32.8101 12.9899 32.8001C10.9299 32.7501 8.86993 32.7801 6.80993 32.7701C5.85993 32.7701 5.73994 32.6401 5.73994 31.6701C5.73994 29.6401 5.71994 27.6001 5.73994 25.5701C5.73994 25.0001 5.56994 24.5901 5.15994 24.2001C3.75994 22.8401 2.38993 21.4501 1.00993 20.0601C0.359929 19.4101 0.359933 19.2601 1.02993 18.6001C2.40993 17.2101 3.77993 15.8201 5.17993 14.4601C5.58993 14.0601 5.74994 13.6501 5.73994 13.0801C5.70994 11.1301 5.72993 9.17007 5.72993 7.22007C5.72993 6.03007 5.78993 5.96007 6.94993 5.96007C8.84993 5.96007 10.7599 5.93007 12.6599 5.98007C13.4099 6.00007 13.9299 5.76007 14.4399 5.23007C15.6799 3.93007 16.9699 2.68007 18.2499 1.41007C19.1499 0.520067 19.1799 0.520068 20.0499 1.38007C21.3599 2.69007 22.6899 3.98006 23.9699 5.31006C24.4499 5.81006 24.9499 5.98007 25.6199 5.97007C27.5999 5.93007 29.5799 5.97007 31.5599 5.94007C32.2999 5.93007 32.5699 6.19007 32.5599 6.94007C32.5199 9.00007 32.5199 11.0601 32.5699 13.1201C32.5799 13.5401 32.7799 14.0401 33.0699 14.3401C34.4299 15.7701 35.8599 17.1501 37.2599 18.5501C37.9999 19.2901 37.9999 19.3501 37.2399 20.1101C35.8399 21.5101 34.4199 22.8901 33.0499 24.3201C32.7799 24.6001 32.5899 25.0701 32.5699 25.4701C32.4999 26.5301 32.5499 27.6101 32.5499 28.6701L32.5599 28.7001ZM21.0499 20.0601C21.1799 20.2901 21.2099 20.3901 21.2799 20.4501C22.9799 21.8301 24.6299 23.2701 26.3999 24.5501C27.8399 25.5901 29.4699 25.5701 31.0799 24.8201C31.5799 24.5901 31.7699 24.3101 31.5399 23.7201C30.8999 22.0501 29.7899 20.9301 28.0099 20.6501C26.5699 20.4201 25.1099 20.3501 23.6599 20.2301C22.8399 20.1601 22.0099 20.1301 21.0399 20.0701L21.0499 20.0601ZM20.2199 21.1201C20.1099 21.2101 19.9999 21.2901 19.8999 21.3801C19.8999 21.5101 19.8599 21.6301 19.8699 21.7601C20.0399 23.8301 20.1899 25.9101 20.3999 27.9801C20.5799 29.7101 21.9499 31.2701 23.5999 31.7701C24.0899 31.9201 24.3699 31.7701 24.5999 31.3201C25.4899 29.6301 25.2799 27.6501 23.9999 26.0601C22.8399 24.6201 21.6699 23.1901 20.5199 21.7501C20.3799 21.5701 20.3199 21.3401 20.2199 21.1301V21.1201ZM17.1899 20.1401C17.0699 20.1001 16.9999 20.0601 16.9299 20.0601C14.8799 20.2201 12.8299 20.3401 10.7799 20.5501C8.80993 20.7601 7.48993 21.8601 6.80993 23.7201C6.61993 24.2301 6.73994 24.5501 7.23994 24.7901C8.69994 25.4901 10.2499 25.6501 11.5699 24.7401C13.5099 23.4001 15.2899 21.8301 17.1399 20.3501C17.1699 20.3301 17.1599 20.2501 17.1899 20.1301V20.1401ZM19.8599 17.4901C20.0899 17.3801 20.1999 17.3601 20.2599 17.3001C21.6299 15.6001 23.0599 13.9401 24.3399 12.1701C25.4199 10.6801 25.4199 9.01007 24.5699 7.37007C24.3799 7.01007 24.1699 6.82007 23.6999 6.96007C21.8799 7.49007 20.5399 9.10007 20.3799 10.9801C20.2299 12.8001 20.0699 14.6101 19.9199 16.4201C19.8899 16.7401 19.8799 17.0601 19.8599 17.4901ZM21.0799 18.4101C21.1099 18.4901 21.1499 18.5601 21.1799 18.6401C21.4799 18.6301 21.7899 18.6201 22.0899 18.6001C23.9099 18.4501 25.7199 18.3101 27.5399 18.1301C29.5199 17.9301 30.8399 16.8801 31.5399 15.0101C31.7599 14.4301 31.6099 14.1501 31.0899 13.9101C29.2899 13.0601 27.5899 13.2201 26.0199 14.4301C24.6199 15.5101 23.2599 16.6501 21.8899 17.7601C21.6199 17.9801 21.3499 18.2001 21.0699 18.4201L21.0799 18.4101ZM18.4699 21.2201C18.1999 21.3801 18.0999 21.4101 18.0399 21.4801C16.6799 23.1601 15.2699 24.8001 13.9999 26.5501C12.9599 27.9901 12.9599 29.6101 13.6899 31.2301C13.9399 31.7801 14.2799 31.9501 14.8699 31.7201C16.7199 30.9901 17.7599 29.6401 17.9699 27.6701C18.1199 26.1701 18.2099 24.6601 18.3299 23.1501C18.3799 22.5601 18.4199 21.9701 18.4799 21.2201H18.4699ZM18.3099 17.5301C18.3999 17.2901 18.4599 17.2201 18.4499 17.1601C18.2799 15.0301 18.1599 12.9001 17.9099 10.7801C17.6899 8.91007 16.5799 7.68006 14.7999 7.02006C14.2099 6.80006 13.9299 6.99007 13.6999 7.49007C12.8599 9.32007 13.0399 11.0401 14.2899 12.6201C15.3199 13.9301 16.3799 15.2101 17.4399 16.5001C17.6999 16.8201 17.9699 17.1201 18.3099 17.5301ZM17.1899 18.6001C17.2099 18.5201 17.2399 18.4401 17.2599 18.3601C15.4299 16.9101 13.6499 15.3901 11.7399 14.0401C10.3899 13.0901 8.83993 13.1601 7.33993 13.8501C6.78993 14.1001 6.59994 14.4401 6.81994 15.0301C7.50994 16.8201 8.77993 17.9001 10.6999 18.1101C12.5899 18.3101 14.4899 18.4401 16.3799 18.6001C16.6499 18.6201 16.9199 18.6001 17.1899 18.6001ZM11.9799 26.5101C10.1799 27.4401 8.50993 27.1901 6.77993 26.0701C6.77993 27.9401 6.75993 29.6201 6.80993 31.3001C6.80993 31.4501 7.23994 31.7101 7.46994 31.7101C8.79994 31.7501 10.1299 31.7201 11.4599 31.7101C11.7299 31.7101 11.9999 31.6701 12.4099 31.6401C11.2799 29.9401 11.1199 28.2901 11.9799 26.5001V26.5101ZM19.2599 9.19007C19.8399 7.39007 21.0899 6.31007 22.9599 5.97007C22.9299 5.83007 22.9499 5.73007 22.9099 5.69007C21.7799 4.54007 20.6599 3.37007 19.4899 2.26007C19.3699 2.15007 18.8999 2.22007 18.7399 2.37007C17.8099 3.24007 16.9199 4.16007 16.0299 5.07007C15.7899 5.32007 15.5699 5.58007 15.3899 5.79007C16.2199 6.22007 17.0699 6.50007 17.6899 7.04007C18.3199 7.59007 18.7199 8.41007 19.2799 9.19007H19.2599ZM5.47993 23.1901C5.97993 22.2801 6.28994 21.4101 6.84994 20.7701C7.39994 20.1501 8.21993 19.7701 8.80993 19.3601C8.12993 18.8701 7.30993 18.4701 6.75993 17.8401C6.20993 17.2101 5.92994 16.3401 5.46994 15.4801C4.53994 16.4201 3.62994 17.3501 2.71994 18.2701C1.9866 19.0034 1.99327 19.7401 2.73994 20.4801C3.65994 21.3901 4.56994 22.3001 5.46994 23.1901H5.47993ZM29.2699 19.3301C31.1799 19.9901 32.2099 21.3401 32.6299 23.4101C33.9499 22.0701 35.1499 20.8801 36.2999 19.6501C36.3999 19.5401 36.3399 19.1001 36.1999 18.9501C35.5499 18.2401 34.8499 17.5801 34.1699 16.9001C33.6799 16.4201 33.1999 15.9401 32.6099 15.3601C32.1899 17.3701 31.2099 18.7101 29.2699 19.3201V19.3301ZM15.2399 32.8501C16.5199 34.1201 17.6999 35.3201 18.9199 36.4801C19.0199 36.5801 19.4999 36.4401 19.6699 36.2701C20.6099 35.3801 21.5199 34.4401 22.4299 33.5101C22.6399 33.3001 22.8199 33.0601 23.0999 32.7301C21.0599 32.3901 19.8399 31.2501 19.2099 29.3501C17.7899 32.1901 17.2399 32.1101 15.2399 32.8501ZM12.4799 7.02006C10.5799 7.02006 8.91993 7.00007 7.25993 7.05007C7.10993 7.05007 6.85994 7.48007 6.84994 7.71007C6.80994 8.67007 6.83994 9.63007 6.84994 10.6001C6.84994 11.2101 6.84994 11.8201 6.84994 12.6301C8.59994 11.4701 10.2599 11.2801 12.0299 12.1801C11.1999 10.3901 11.3199 8.77006 12.4899 7.02006H12.4799ZM31.4799 25.9101C29.7299 27.2201 28.0399 27.3001 26.2399 26.3901C27.1899 28.1901 26.9899 29.8601 25.8499 31.6201C27.7199 31.6201 29.3999 31.6301 31.0799 31.5901C31.2199 31.5901 31.4499 31.2101 31.4599 30.9901C31.4999 30.1601 31.4799 29.3201 31.4799 28.4901C31.4799 27.7001 31.4799 26.9101 31.4799 25.9101ZM31.4799 12.6701C31.4799 10.7701 31.4899 9.08007 31.4499 7.41007C31.4499 7.27007 31.0499 7.04007 30.8299 7.04007C29.7599 7.00007 28.6899 7.03007 27.6299 7.04007C27.0999 7.04007 26.5699 7.04007 25.7999 7.04007C27.0599 8.79007 27.1499 10.4401 26.2799 12.2101C28.0499 11.3601 29.6999 11.4201 31.4699 12.6801L31.4799 12.6701Z" fill="white"/>
</svg>
